<?xml version="1.0" encoding="UTF-8"?>
<!DOCTYPE svg PUBLIC "-//W3C//DTD SVG 1.1//EN" "http://www.w3.org/Graphics/SVG/1.1/DTD/svg11.dtd">
<svg version="1.1" xmlns="http://www.w3.org/2000/svg" xmlns:xlink="http://www.w3.org/1999/xlink" x="0" y="0" width="592" height="510" viewBox="0, 0, 592, 510">
  <g id="Layer_1">
    <path d="M1.986,272.033 C-0.587,290.623 12.395,307.781 30.986,310.354 C49.575,312.927 66.732,299.944 69.305,281.355 C71.879,262.765 58.894,245.609 40.305,243.035 C21.715,240.461 4.559,253.446 1.986,272.033 M449.185,437.172 C448.663,437.515 448.503,438.055 448.491,438.605 C448.526,438.895 448.527,439.181 448.671,439.478 C448.774,439.77 448.872,440.064 449.04,440.359 C450.335,442.706 452.059,444.932 453.542,447.319 C454.291,448.51 454.999,449.746 455.558,451.09 C456.099,452.42 456.545,453.909 456.321,455.503 C456.199,456.29 455.887,457.064 455.416,457.714 C454.928,458.343 454.338,458.87 453.695,459.27 C452.412,460.077 451.008,460.544 449.612,460.821 C446.831,461.474 443.907,461.601 441.105,461.078 C438.329,460.579 435.667,459.588 433.233,458.224 C435.162,460.126 440.05,476.203 439.595,478.927 C439.134,481.7 438.208,493.72 436.821,496.032 C435.435,498.344 429.887,503.429 428.499,505.741 C427.112,508.053 438.735,509.44 448.411,505.741 C458.089,502.042 457.626,496.957 457.626,496.957 C457.626,496.957 461.331,489.407 464.561,489.56 C465.774,489.617 466.573,486.383 466.353,485.572 C466.07,484.533 464.561,484.012 464.561,484.012 C464.561,484.012 465.485,476.614 469.185,473.379 C472.882,470.142 475.79,470.384 475.79,470.384 L477.506,467.079 L475.656,463.67 L476.293,461.618 L479.284,461.659 L480.742,458.584 L478.43,455.349 L479.5,448.143 L476.581,443.083 C476.581,443.083 461.786,438.705 457.164,436.855 C456.741,436.687 456.178,436.303 455.505,435.745 C454.632,435.8 453.764,435.869 452.905,435.989 C451.581,436.189 450.134,436.408 449.185,437.172 M346.092,156.919 C346.397,157.225 345.982,156.702 345.11,155.652 L344.929,155.703 C345.489,156.293 345.896,156.724 346.092,156.919 M322.514,136.812 C318.354,137.852 309.31,142.359 309.31,142.359 C309.31,142.359 299.282,145.133 292.694,145.826 C286.106,146.52 274.511,143.745 274.511,143.745 C274.511,143.745 268.423,137.852 264.262,143.399 C260.101,148.947 258.367,153.451 255.247,156.919 C252.126,160.389 253.859,169.819 253.166,175.68 C252.473,181.54 256.634,179.138 258.714,180.167 C260.795,181.194 263.222,173.534 265.995,173.029 C268.77,172.526 266.731,168.711 274.511,169.058 C282.292,169.405 288.187,167.324 288.187,167.324 C288.187,167.324 302.75,175.961 313.152,173.029 C323.554,170.098 327.715,160.314 333.263,158.964 C334.952,158.553 339.446,157.269 344.929,155.703 C340.531,151.057 326.205,135.888 322.514,136.812 M504.782,89.192 C498.833,90.017 493.154,92.124 487.534,94.153 C481.918,96.233 476.427,98.62 470.932,100.99 C465.482,103.464 460.05,105.97 454.694,108.637 C453.994,108.992 453.293,109.346 452.593,109.7 C447.951,112.042 443.312,114.397 438.901,117.162 C441.56,115.792 444.277,114.553 447.001,113.325 L452.972,110.594 L455.151,109.596 C460.595,107.139 466.01,104.617 471.494,102.256 C476.934,99.793 482.413,97.424 487.928,95.145 C490.683,94.005 493.442,92.864 496.25,91.867 C499.028,90.766 501.868,89.889 504.782,89.192 M375.209,239.928 C369.427,243.197 363.988,246.989 358.464,250.596 C353.001,254.299 347.451,257.847 341.618,260.881 C336.146,263.737 330.361,266.027 324.305,267.429 C323.92,267.517 323.538,267.614 323.15,267.696 L324.341,267.489 L328.044,266.842 C329.65,266.444 331.245,265.984 332.853,265.551 C334.427,265.03 335.971,264.413 337.535,263.848 C339.075,263.222 340.573,262.504 342.097,261.836 C348.099,258.963 353.699,255.367 359.231,251.749 C364.708,248.035 370.132,244.279 375.746,240.843 C377.132,239.953 378.588,239.193 380.008,238.36 C381.433,237.538 382.936,236.869 384.395,236.109 C385.87,235.38 387.405,234.79 388.914,234.121 C390.458,233.557 392.034,233.067 393.596,232.511 C391.999,232.92 390.379,233.294 388.793,233.779 C387.241,234.352 385.651,234.852 384.12,235.49 C382.616,236.189 381.072,236.817 379.602,237.586 C378.14,238.371 376.637,239.087 375.209,239.928 M590.196,142.359 C590.196,142.359 590.89,146.866 590.196,148.6 C589.503,150.334 588.116,151.374 588.116,153.918 C588.116,156.458 584.995,158.964 584.995,158.964 L581.874,161.777 C581.874,161.777 575.633,160.042 572.859,158.964 C570.085,157.886 564.537,158.309 562.457,153.918 C560.377,149.524 559.913,141.781 556.1,137.967 C552.285,134.153 532.291,124.329 528.13,122.943 C523.969,121.555 515.301,112.194 512.18,112.309 C509.06,112.423 500.391,108.726 496.924,109.534 C494.812,110.027 480.108,112.191 468.925,113.808 C468.452,118.165 467.364,123.369 465.964,128.618 C464.727,129.591 463.456,130.53 462.16,131.436 C457.144,134.935 451.796,138.001 446.336,140.836 C440.868,143.663 435.25,146.218 429.522,148.5 C423.786,150.74 417.944,152.823 411.856,153.918 C417.985,153.054 423.927,151.181 429.766,149.149 C435.6,147.075 441.337,144.721 446.948,142.08 C452.556,139.43 458.065,136.542 463.318,133.163 C463.885,132.799 464.446,132.425 465.006,132.047 C461.816,143.009 457.542,153.388 454.967,155.765 C450.508,159.883 457.456,166.716 454.875,175.364 C450.15,175.066 445.397,175.218 440.676,175.592 C434.661,176.089 428.691,177.092 422.809,178.445 C419.865,179.121 416.943,179.877 414.039,180.703 C411.167,181.522 408.196,182.496 405.478,183.315 L397.756,185.961 C400.743,184.939 411.89,183.958 414.753,183.022 C417.584,182.1 420.437,181.241 423.311,180.462 C429.059,178.907 434.907,177.689 440.822,176.97 C445.399,176.43 450.021,176.098 454.638,176.199 C452.166,184.325 455.755,182.759 454.803,190.483 C453.829,198.383 449.767,193.213 448.842,198.761 C448.523,200.67 448.87,202.854 449.509,205.01 C448.957,204.463 448.364,203.956 447.795,203.425 C446.574,202.206 445.099,201.298 443.722,200.257 C440.781,198.477 437.647,196.916 434.315,196.02 C427.692,194.042 420.798,193.479 413.985,193.178 C407.152,192.869 391.912,194.303 385.101,194.456 L393.663,195.987 C400.421,195.605 407.188,195.183 413.937,195.255 C420.671,195.323 427.455,195.654 433.934,197.352 C437.2,198.111 440.256,199.514 443.17,201.139 C444.53,202.102 446,202.933 447.23,204.084 C447.862,204.635 448.53,205.149 449.136,205.732 L450.046,206.658 C451.313,210.157 453.141,213.368 453.928,214.944 C455.314,217.718 454.852,232.511 453.928,236.208 C453.003,239.909 434.337,211.709 409.372,208.936 C407.404,208.719 405.502,208.586 403.655,208.513 C415.554,211.055 429.376,218.159 447.34,233.898 C447.604,234.961 447.829,236.117 448.004,237.349 C430.038,224.032 400.503,218.735 375.191,219.682 L374.467,219.972 C399.243,219.038 430.409,227.059 448.12,240.746 C449.804,259.272 440.297,290.51 388.741,297.351 C387.511,297.514 382.839,298.31 377.339,299.268 C377.043,299.407 376.746,299.551 376.455,299.689 C375.952,299.689 375.451,299.689 374.946,299.685 C373.18,299.992 371.37,300.311 369.593,300.622 L371.191,302.112 C372.846,301.371 374.602,300.565 376.455,299.689 C406.606,299.649 430.983,288.642 432.976,286.814 C427.419,294.753 414.696,307.385 408.626,322.67 C399.462,319.923 388.426,314.124 375.612,305.278 L375.213,305.853 L374.824,306.416 C376.054,307.266 377.265,308.083 378.464,308.877 C389.794,316.388 399.709,321.431 408.126,323.974 C407.124,326.697 406.334,329.5 405.847,332.371 C403.558,332.904 400.973,332.897 398.224,332.489 C391.817,339.241 382.157,356.774 378.86,361.497 C377.05,364.094 370.998,368.816 364.929,373.106 C371.601,370.165 378.809,366.372 382.73,362.885 C382.73,362.885 394.549,371.55 403.275,376.884 C401.913,377.514 400.559,378.163 399.221,378.84 C391.961,382.558 385.004,386.808 378.276,391.451 L379.095,392.572 C385.613,387.793 392.436,383.349 399.543,379.453 C400.962,378.684 402.399,377.945 403.848,377.233 C404.373,377.548 404.888,377.854 405.385,378.141 C414.168,383.227 423.877,401.257 427.576,404.493 C429.622,406.283 437.05,415.439 444.061,423.571 C442.403,425.587 440.602,427.48 438.758,429.323 C436.901,431.173 434.977,432.955 432.971,434.631 C431.97,435.468 430.95,436.282 429.9,437.039 C428.88,437.753 427.7,438.585 426.745,438.835 L427.018,440.194 C428.604,439.678 429.524,438.813 430.629,438.009 C431.679,437.18 432.678,436.307 433.656,435.412 C435.613,433.629 437.47,431.747 439.258,429.804 C441.015,427.885 442.727,425.919 444.291,423.839 C448.4,428.599 452.335,432.962 454.938,435.26 C454.239,435.261 453.539,435.276 452.835,435.317 C452.131,435.372 451.425,435.465 450.72,435.617 C450.366,435.697 450.017,435.822 449.664,435.927 C449.329,436.114 448.961,436.207 448.653,436.48 C447.958,436.882 447.54,437.792 447.524,438.596 C447.542,439 447.556,439.416 447.699,439.766 C447.808,440.134 447.922,440.502 448.083,440.823 C449.334,443.434 451.074,445.608 452.469,447.979 C453.182,449.151 453.841,450.348 454.331,451.585 C454.817,452.811 455.146,454.116 454.952,455.296 C454.861,455.882 454.652,456.432 454.316,456.918 C453.955,457.39 453.511,457.816 452.975,458.157 C451.914,458.852 450.638,459.318 449.316,459.595 C446.699,460.274 443.959,460.358 441.27,460.022 C438.576,459.669 435.939,458.816 433.483,457.589 C433.108,457.398 432.741,457.187 432.37,456.983 C430.63,453.299 428.357,442.623 424.339,441.016 C419.716,439.167 418.113,438.242 418.113,438.242 C418.113,438.242 380.419,412.353 378.86,411.428 C377.303,410.503 373.946,398.021 370.711,394.322 C368.628,391.942 358.337,385.928 351.26,381.941 C350.805,382.173 350.494,382.302 350.368,382.302 C348.981,382.302 341.585,376.292 337.886,371.206 C334.187,366.12 335.573,347.628 335.573,347.628 C335.573,347.628 344.379,315.93 350.11,298.187 C344.824,292.402 335.867,282.503 327.673,272.998 L340.231,293.769 C335.377,302.09 295.352,304.633 289.684,306.251 C285.134,307.549 273.976,288.758 269.386,280.089 C270.494,289.023 277.736,303.508 288.187,309.833 C288.883,310.879 286.964,313.678 283.047,317.091 C274.155,308.888 266.064,295.881 261.952,286.33 L260.678,286.876 C264.027,294.657 272.271,308.914 281.99,317.985 C275.5,323.337 264.472,329.896 251.012,333.644 C236.917,321.921 230.896,302.114 230.83,301.893 L230.455,302.118 C230.52,302.344 232.683,322.142 246.578,334.221 C243.771,334.944 243.67,335.402 240.684,335.839 C212.251,340 208.011,344.855 189.02,349.362 C187.704,349.675 186.481,350.04 185.329,350.444 C181.029,346.714 179.748,340.97 178.732,336.362 C178.193,333.91 177.728,331.794 176.902,330.401 L175.71,331.106 C176.421,332.31 176.863,334.324 177.378,336.661 C178.351,341.078 179.663,346.94 183.88,350.989 C180.789,352.236 178.318,353.795 176.327,355.483 C175.271,355.34 174.189,355.217 173.089,355.097 C167.044,354.433 160.191,353.683 156.506,349.045 C151.165,342.325 158.616,333.215 163.712,327.579 C171.987,327.522 179.765,323.57 181.045,321.97 C182.432,320.236 228.779,294.462 229.473,292.843 C230.166,291.225 234.789,293.305 238.257,292.843 C241.278,292.44 257.12,281.328 267.414,275.726 C268.451,272.593 296.533,252.743 309.439,247.887 C311.774,240.34 353.368,218.667 368.142,211.883 C370.169,210.172 374.267,208.29 373.946,206.853 C373.484,204.772 373.484,201.305 376.026,199.687 C376.963,199.091 376.987,197.397 376.648,195.496 C377.355,194.805 378.052,194.102 378.767,193.419 C384.602,187.878 390.781,182.685 397.271,177.91 C403.769,173.154 410.573,168.771 417.824,165.24 C421.449,163.483 425.187,161.935 429.057,160.801 C432.922,159.669 436.933,158.933 440.982,158.985 C436.937,158.817 432.883,159.44 428.963,160.465 C425.037,161.497 421.23,162.947 417.53,164.613 C410.128,167.958 403.148,172.176 396.467,176.782 C389.789,181.405 383.411,186.46 377.356,191.888 C376.924,192.28 376.504,192.685 376.073,193.079 C375.357,190.584 374.408,188.359 374.408,188.359 C374.408,188.359 373.058,180.865 371.53,172.046 C378.111,164.114 384.59,156.156 391.893,148.947 C396.428,144.484 401.309,140.323 406.67,136.901 C405.354,137.403 404.049,137.898 402.768,138.383 C398.569,141.235 394.64,144.493 390.934,147.945 C383.813,154.599 377.422,161.924 371.04,169.208 C370.839,168.036 370.638,166.859 370.438,165.678 C370.438,165.678 370.243,163.608 369.898,162.484 C369.167,158.13 367.057,101.63 367.074,101.242 L365.687,101.184 C365.621,102.77 364.506,130.437 366.348,149.733 C366.104,149.796 365.857,149.862 365.609,149.928 C359.372,151.582 351.575,153.807 345.11,155.652 C341.025,150.738 326.675,134.038 326.675,134.038 C326.675,134.038 341.585,122.943 340.231,121.902 C338.881,120.862 359.269,95.897 361.464,95.897 L373.228,88.613 C369.021,88.928 362.398,92.027 362.398,92.027 C361.248,91.699 359.935,87.264 359.605,85.785 C359.277,84.307 358.128,84.143 357.307,83.158 C356.486,82.173 354.678,83.815 354.022,83.158 C353.365,82.501 352.38,78.724 352.38,78.724 C352.38,78.724 349.259,79.052 348.766,78.724 C348.274,78.394 347.124,73.304 346.139,72.319 C345.153,71.332 341.211,73.633 339.241,72.319 C337.27,71.005 341.54,58.194 340.063,56.059 C338.585,53.924 337.105,53.43 336.612,51.46 C336.121,49.489 337.763,35.858 337.599,31.588 C337.599,31.588 334.807,27.154 334.807,26.66 C334.807,26.169 347.617,4.653 360.428,3.175 C373.238,1.696 391.304,3.832 399.022,11.879 C406.741,19.928 406.414,34.545 405.428,37.992 C404.574,40.98 406.187,53.074 408.127,57.754 C412.113,54.299 415.414,52.017 417.105,52.267 C420.255,54.331 425.726,63.072 426.419,63.303 C427.112,63.533 396.138,77.403 396.138,77.403 C396.138,77.403 432.198,62.61 435.897,61.453 C439.595,60.298 458.551,59.604 462.479,60.529 C465.937,61.342 478.156,76.815 490.487,81.475 C486.735,82.476 483.007,83.557 479.289,84.679 C475.097,85.979 470.913,87.31 466.783,88.814 C464.719,89.567 462.66,90.335 460.619,91.158 C459.605,91.586 458.597,92.027 457.6,92.498 C457.104,92.737 456.608,92.978 456.125,93.247 C455.673,93.54 455.114,93.782 454.852,94.278 C455.166,93.83 455.737,93.666 456.219,93.436 C456.72,93.22 457.23,93.025 457.742,92.837 C458.771,92.465 459.811,92.124 460.854,91.795 C462.931,91.106 465.021,90.454 467.119,89.824 L479.693,86.003 L492.248,82.092 L492.305,82.074 C493.387,82.385 494.465,82.614 495.536,82.72 C509.406,84.108 522.235,87.922 530.21,91.736 C538.186,95.55 566.618,128.49 571.473,130.571 C571.473,130.571 583.262,132.997 584.995,135.598 C586.729,138.197 590.196,142.359 590.196,142.359 M155.42,349.909 C149.704,342.717 156.772,333.329 161.896,327.53 C161.808,327.523 161.718,327.524 161.627,327.517 C152.612,326.823 113.777,316.075 107.189,309.487 C100.602,302.899 98.174,312.261 100.948,315.728 C103.722,319.196 100.421,319.196 99.817,320.929 C99.214,322.663 101.642,323.703 101.642,323.703 L104.762,323.01 L107.536,329.598 L105.803,332.789 L107.536,336.186 L113.431,336.186 L118.285,342.427 L116.551,345.201 L118.979,347.281 L122.793,347.281 L137.355,362.192 L135.622,365.658 L138.049,367.739 L142.21,367.739 L146.024,371.206 L145.678,375.714 L148.104,378.141 L151.919,376.407 L156.426,378.141 C156.426,378.141 166.481,371.553 167.521,370.166 C168.206,369.256 169.074,362.505 174.976,356.705 C174.304,356.626 173.624,356.551 172.938,356.474 C166.624,355.781 159.467,354.997 155.42,349.909 M433.126,286.602 C433.14,286.646 433.076,286.721 432.976,286.814 L433.126,286.602" fill="#0B0B09"/>
  </g>
</svg>
